<svg width="233" height="233" viewBox="0 0 233 233" fill="none" xmlns="http://www.w3.org/2000/svg">
<path d="M116.5 0C180.841 0 233 52.1588 233 116.5C233 180.841 180.841 233 116.5 233C52.1588 233 0 180.841 0 116.5C0 52.1588 52.1588 0 116.5 0ZM117 39C73.3695 39 38 74.3695 38 118C38 161.63 73.3695 197 117 197C160.63 197 196 161.63 196 118C196 74.3695 160.63 39 117 39Z" fill="#CC0000"/>
<rect x="100" y="147" width="34" height="59" fill="#CC0000"/>
<circle cx="116.5" cy="117.5" r="39.5" fill="#CC0000"/>
</svg>
