<svg xmlns="http://www.w3.org/2000/svg" viewBox="0 0 841.9 595.3">
  <g fill="#61DAFB">
    <path d="M666.3 313.1c0-8.1-2.4-16.1-7.2-23.1l-192.9-280.6c-10.6-15.4-29.1-20.2-44.6-9.6-15.4 10.6-20.2 29.1-9.6 44.6l185.5 270.1c1.8 2.6 3.5 5.2 5.2 7.7 4.3 6.3 6.6 13.6 6.6 21.2 0 8.1-2.4 16.1-7.2 23.1l-192.9 280.6c-10.6 15.4-29.1 20.2-44.6 9.6-15.4-10.6-20.2-29.1-9.6-44.6l185.5-270.1c1.8-2.6 3.5-5.2 5.2-7.7-4.3 6.3-6.6 13.6-6.6-21.2z"/>
    <path d="M175.6 313.1c0-8.1 2.4-16.1 7.2-23.1l192.9-280.6c10.6-15.4 29.1-20.2 44.6-9.6 15.4 10.6 20.2 29.1 9.6 44.6l-185.5 270.1c-1.8 2.6-3.5 5.2-5.2 7.7-4.3 6.3-6.6 13.6-6.6 21.2 0 8.1 2.4 16.1 7.2 23.1l192.9 280.6c10.6 15.4 29.1 20.2 44.6 9.6 15.4-10.6 20.2-29.1 9.6-44.6l-185.5-270.1c-1.8-2.6-3.5-5.2-5.2-7.7-4.3 6.3-6.6-13.6-6.6-21.2z"/>
    <path d="M420.9 100.3c-21.3 0-38.6 17.3-38.6 38.6s17.3 38.6 38.6 38.6 38.6-17.3 38.6-38.6-17.3-38.6-38.6-38.6zm0 100c-21.3 0-38.6 17.3-38.6 38.6s17.3 38.6 38.6 38.6 38.6-17.3 38.6-38.6-17.3-38.6-38.6-38.6zm0 100c-21.3 0-38.6 17.3-38.6 38.6s17.3 38.6 38.6 38.6 38.6-17.3 38.6-38.6-17.3-38.6-38.6-38.6z"/>
  </g>
</svg>